<svg xmlns="http://www.w3.org/2000/svg" width="32px" height="32px" viewBox="0 0 32 32" version="1.1">
    <defs>
        <linearGradient x1="50%" y1="0%" x2="50%" y2="100%" id="linearGradient-1">
            <stop stop-color="#D80027" offset="0%"/>
            <stop stop-color="#D80027" offset="75.6638367%"/>
            <stop stop-color="#FFDA44" offset="75.9799494%"/>
            <stop stop-color="#FFDA44" offset="100%"/>
        </linearGradient>
        <linearGradient x1="50%" y1="100%" x2="50%" y2="3.061617e-15%" id="linearGradient-2">
            <stop stop-color="#D80027" offset="0%"/>
            <stop stop-color="#D80027" offset="75.6638367%"/>
            <stop stop-color="#FFDA44" offset="75.9799494%"/>
            <stop stop-color="#FFDA44" offset="100%"/>
        </linearGradient>
    </defs>
    <g stroke="none" stroke-width="1" fill="none" fill-rule="evenodd">
        <path d="M31.0048125,10.4348125 C30.8107895,9.91190361 30.5902198,9.4018901 30.3447404,8.90641017 C30.0859651,8.38409381 29.7995086,7.87792802 29.4872884,7.38983186 C28.792254,6.3032796 27.9695465,5.30627203 27.0403188,4.41997942 C24.1691685,1.681491 20.2810684,-1.59872116e-13 16,-1.59872116e-13 C11.7189316,-1.59872116e-13 7.83083149,1.681491 4.95968119,4.41997942 C4.03045351,5.30627203 3.20774601,6.3032796 2.51271163,7.38983186 C2.20049139,7.87792802 1.91403489,8.38409381 1.65525963,8.90641017 C1.40978016,9.4018901 1.18921049,9.91190361 0.9951875,10.4348125 L31.0048125,10.4348125 Z" fill="url(#linearGradient-1)"/>
        <path d="M0,16 C0,17.957125 0.3520625,19.831875 0.9951875,21.5651875 L16,22.9565 L31.0048125,21.5651875 C31.6479375,19.831875 32,17.957125 32,16 C32,14.042875 31.6479375,12.168125 31.0048125,10.4348125 L16,9.0435 L0.9951875,10.4348125 C0.3520625,12.168125 0,14.042875 0,16 Z" fill="#FFDA44"/>
        <path d="M0.9951875,21.5651875 C3.255875,27.6579375 9.1205625,32 16,32 C22.8794375,32 28.744125,27.6579375 31.0048125,21.5651875 L0.9951875,21.5651875 Z" fill="url(#linearGradient-2)"/>
        <g transform="translate(10.000000, 10.000000)">
            <path d="M11.4999807,6 L11.9920788,3.45643801 C12.0374426,3.22217747 11.8822196,3 11.6732834,3 L11.326678,3 C11.1178075,3 10.9626503,3.22217747 11.0078825,3.45643801 L11.4999807,6 Z" fill="#AD1519"/>
            <rect fill="#E6E6E6" x="11" y="5" width="1" height="6"/>
            <polygon fill="#FAB446" points="11 4 13 4 13 5 11 5"/>
            <g transform="translate(1.000000, 3.000000)" fill="#AD1519">
                <polygon points="8.52311688 3.1427637 11.9625974 3.1427637 11.9625974 3.8363543 8.52311688 3.8363543"/>
                <polygon points="11.9623636 5.91696899 9.89875325 5.22345695 9.89875325 4.52986635 11.9623636 5.22345695"/>
                <path d="M0.612623377,3.1427637 L1.19587013,0.49654425 C1.24963636,0.252829019 1.06566234,0.0216845274 0.818025974,0.0216845274 L0.407220779,0.0216845274 C0.159662338,0.0216845274 -0.0242337662,0.252829019 0.0293766234,0.49654425 L0.612623377,3.1427637 Z"/>
            </g>
            <path d="M3.70003172,4 C3.31346006,4 3,4.32567145 3,4.72730269 L3,9.45452299 C3,10.3381117 3.79376048,12 6.5,12 C9.20623952,12 10,10.3381941 10,9.45452299 L10,4.72730269 C10,4.32567145 9.68653994,4 9.29996828,4 L3.70003172,4 Z" fill="#E6E6E6"/>
            <g transform="translate(3.000000, 4.000000)" fill="#AD1519">
                <path d="M3.46684615,3.46351299 L0.0716153846,3.46351299 L0.0716153846,0.724874427 C0.0716153846,0.346770122 0.375692308,0.0401760061 0.750692308,0.0401760061 L3.46684615,0.0401760061 L3.46684615,3.46351299 Z"/>
                <path d="M3.46684615,3.46351299 L6.86207692,3.46351299 L6.86207692,5.17518148 C6.86207692,6.12055858 6.10207692,6.88684997 5.16446154,6.88684997 C4.22684615,6.88684997 3.46684615,6.12055858 3.46684615,5.17518148 L3.46684615,3.46351299 Z"/>
            </g>
            <path d="M3,8 L6,8 L6,9.5 C6,10.3284698 5.3284698,11 4.5,11 C3.6715302,11 3,10.3284698 3,9.5 L3,8 Z" fill="#FAB446"/>
            <g transform="translate(4.000000, 8.000000)" fill="#AD1519">
                <path d="M1.94578571,3.31546547 L1.94578571,0.0539943236 L1.31521429,0.0539943236 L1.31521429,3.65029612 C1.54978571,3.59547871 1.76171429,3.47580227 1.94578571,3.31546547 Z"/>
                <path d="M0.684714286,3.65029612 L0.684714286,0.0539943236 L0.0541428571,0.0539943236 L0.0541428571,3.31546547 C0.238285714,3.47580227 0.450214286,3.59547871 0.684714286,3.65029612 Z"/>
            </g>
            <polygon fill="#FFB441" points="4 6 6 6 6 7 4 7"/>
            <g transform="translate(4.000000, 5.000000)" fill="#FAB446">
                <polygon points="0.0542857143 0.031 1.94592857 0.031 1.94592857 0.833545455 0.0542857143 0.833545455"/>
                <polygon points="0.369285714 0.508272727 1.63035714 0.508272727 1.63035714 1.96209091 0.369285714 1.96209091"/>
            </g>
            <polygon fill="#E6E6E6" points="1 5 2 5 2 11 1 11"/>
            <g transform="translate(0.000000, 4.000000)" fill="#FAB446">
                <polygon points="0.0442857143 6.20253935 1.93592857 6.20253935 1.93592857 6.88723777 0.0442857143 6.88723777"/>
                <rect x="0.0442857143" y="0.0404086857" width="1.89164286" height="1"/>
            </g>
            <polygon fill="#5064AA" points="0 11 3 11 3 12 0 12"/>
            <polygon fill="#FAB446" points="11 10 13 10 13 11 11 11"/>
            <polygon fill="#5064AA" points="10 11 13 11 13 12 10 12"/>
            <polygon fill="#FAB446" points="5 3 9 3 9 4 5 4"/>
            <polygon fill="#FFB441" points="6 1 7 1 7 3 6 3"/>
            <g transform="translate(3.000000, 0.000000)" fill="#E6E6E6">
                <path d="M2.60341667,1.97687334 C1.99491667,1.97687334 1.5,1.54907533 1.5,1.02325828 C1.5,0.497369205 1.995,0.0696432119 2.60341667,0.0696432119 C3.21191667,0.0696432119 3.70683333,0.497441225 3.70683333,1.02325828 C3.70691667,1.54907533 3.21191667,1.97687334 2.60341667,1.97687334 Z M2.60341667,0.705362583 C2.4005,0.705362583 2.23558333,0.847817881 2.23558333,1.02325828 C2.23558333,1.19862666 2.40041667,1.34115397 2.60341667,1.34115397 C2.80641667,1.34115397 2.97125,1.19869868 2.97125,1.02325828 C2.97125,0.847889901 2.80641667,0.705362583 2.60341667,0.705362583 Z"/>
                <path d="M4.07475,1.97687334 C3.46625,1.97687334 2.97133333,1.54907533 2.97133333,1.02325828 C2.97133333,0.497369205 3.46633333,0.0696432119 4.07475,0.0696432119 C4.68325,0.0696432119 5.17816667,0.497441225 5.17816667,1.02325828 C5.17816667,1.54907533 4.68316667,1.97687334 4.07475,1.97687334 Z M4.07475,0.705362583 C3.87183333,0.705362583 3.70691667,0.847817881 3.70691667,1.02325828 C3.70691667,1.19862666 3.87175,1.34115397 4.07475,1.34115397 C4.27766667,1.34115397 4.44258333,1.19869868 4.44258333,1.02325828 C4.4425,0.847889901 4.27766667,0.705362583 4.07475,0.705362583 Z"/>
                <path d="M5.546,2.61266474 C4.9375,2.61266474 4.44258333,2.18486672 4.44258333,1.65904967 C4.44258333,1.1331606 4.93758333,0.705434603 5.546,0.705434603 C6.1545,0.705434603 6.64941667,1.13323262 6.64941667,1.65904967 C6.64941667,2.18486672 6.15441667,2.61266474 5.546,2.61266474 Z M5.546,1.34115397 C5.34308333,1.34115397 5.17816667,1.48360927 5.17816667,1.65904967 C5.17816667,1.83441805 5.343,1.97694536 5.546,1.97694536 C5.74891667,1.97694536 5.91383333,1.83449007 5.91383333,1.65904967 C5.91383333,1.48360927 5.74891667,1.34115397 5.546,1.34115397 Z"/>
                <path d="M1.13216667,2.61266474 C0.523666667,2.61266474 0.02875,2.18486672 0.02875,1.65904967 C0.02875,1.1331606 0.52375,0.705434603 1.13216667,0.705434603 C1.74066667,0.705434603 2.23558333,1.13323262 2.23558333,1.65904967 C2.23566667,2.18486672 1.74066667,2.61266474 1.13216667,2.61266474 Z M1.13216667,1.34115397 C0.92925,1.34115397 0.764333333,1.48360927 0.764333333,1.65904967 C0.764333333,1.83441805 0.929166667,1.97694536 1.13216667,1.97694536 C1.33516667,1.97694536 1.5,1.83441805 1.5,1.65897765 C1.5,1.48360927 1.33516667,1.34115397 1.13216667,1.34115397 Z"/>
            </g>
            <path d="M8.33338368,8.66664149 L8.33338368,9 C8.33338368,9.18382297 8.18385379,9.33335851 8.00003776,9.33335851 C7.81622173,9.33335851 7.66669184,9.18382297 7.66669184,9 L7.66669184,8.66664149 L8.33338368,8.66664149 Z M9,8 L7,8 L7,9 C7,9.55146892 7.44858966,10 7.99996224,10 C8.55141034,10 8.99992448,9.5513934 8.99992448,9 L8.99992448,8 L9,8 Z" fill="#FAB446"/>
            <path d="M8.5,7 C8.2238899,7 8,6.70148014 8,6.33333333 L8,5.66666667 C8,5.29851986 8.2238899,5 8.5,5 C8.7761101,5 9,5.29851986 9,5.66666667 L9,6.33333333 C9,6.70148014 8.7761101,7 8.5,7 Z" fill="#FFA0D2"/>
            <circle fill="#5064AA" cx="7" cy="8" r="1"/>
            <polygon fill="#FAB446" points="6 0 7 0 7 2 6 2"/>
            <path d="M4.6250177,3 L4,2.33330816 L4.36610405,1.94279349 C4.93200419,1.33916097 5.69961202,1 6.5,1 C7.30038798,1 8.06792501,1.33916097 8.63389595,1.94279349 L9,2.33330816 L8.3749823,3 L4.6250177,3 Z" fill="#AD1519"/>
            <g transform="translate(5.000000, 2.000000)" fill="#FFD250">
                <ellipse cx="2.00608696" cy="0.4861" rx="1" ry="1"/>
                <ellipse cx="0.470434783" cy="0.4861" rx="1" ry="1"/>
                <ellipse cx="3.54086957" cy="0.4861" rx="1" ry="1"/>
            </g>
            <g transform="translate(0.000000, 6.000000)" fill="#AD1519">
                <polygon points="0.0506122449 7.20198675e-05 3.65387755 7.20198675e-05 3.65387755 0.635863411 0.0506122449 0.635863411"/>
                <polygon points="0.0506938776 2.54309354 2.2124898 1.90737417 2.2124898 1.27158278 0.0506938776 1.90737417"/>
            </g>
        </g>
    </g>
</svg>
